<?xml version="1.0" encoding="UTF-8" standalone="no" ?>

<svg width="200" height="250" version="1.1" xmlns="http://www.w3.org/2000/svg">
    <svg x="10">
        <rect x="10" y="10" width="30" height="30" fill="transparent" stroke="#000" stroke-width="5" />
        <rect x="60" y="10" rx="10" ry="10" width="30" height="30" fill="transparent" stroke="#000" stroke-width="5" />

        <circle cx="25" cy="75" r="20" stroke="#f00" fill="transparent" stroke-width="5" />
        <ellipse cx="75" cy="75" rx="20" ry="5" stroke="#f00" stroke-width="5" fill="transparent" />

        <line x1="10" x2="50" y1="110" y2="150" stroke="#ff0" stroke-width="5" fill="transparent" />
        <polyline points="60 110 65 120 70 115 75 130 80 125 85 140 90 135 95 150 100 145" stroke="#ff0" stroke-width="5" fill="transparent" />

        <polygon points="50 160 55 180 70 180 60 190 65 205 50 195 35 205 40 190 30 180 45 180" stroke="green" fill="transparent" stroke-width="5" />

        <path d="M20,230 Q40,205 50,230 T90,230" stroke="#000" stroke-width="5" fill="transparent" />
    </svg>
</svg>

